# Tiled2Unity generated file. Do not modify by hand.
# Wavefront file for 'Test-Area_mesh_0003.obj'

# Vertices (Count = 348)
v -816 -480 0
v -832 -480 0
v -832 -464 0
v -816 -464 0
v -816 -496 0
v -832 -496 0
v -832 -480 0
v -816 -480 0
v -784 -512 0
v -800 -512 0
v -800 -496 0
v -784 -496 0
v -608 -512 0
v -624 -512 0
v -624 -496 0
v -608 -496 0
v -480 -512 0
v -496 -512 0
v -496 -496 0
v -480 -496 0
v -784 -528 0
v -800 -528 0
v -800 -512 0
v -784 -512 0
v -704 -528 0
v -720 -528 0
v -720 -512 0
v -704 -512 0
v -704 -544 0
v -720 -544 0
v -720 -528 0
v -704 -528 0
v -656 -544 0
v -672 -544 0
v -672 -528 0
v -656 -528 0
v -896 -560 0
v -912 -560 0
v -912 -544 0
v -896 -544 0
v -880 -560 0
v -896 -560 0
v -896 -544 0
v -880 -544 0
v -656 -560 0
v -672 -560 0
v -672 -544 0
v -656 -544 0
v -896 -576 0
v -912 -576 0
v -912 -560 0
v -896 -560 0
v -880 -576 0
v -896 -576 0
v -896 -560 0
v -880 -560 0
v -736 -576 0
v -752 -576 0
v -752 -560 0
v -736 -560 0
v -672 -576 0
v -688 -576 0
v -688 -560 0
v -672 -560 0
v -448 -576 0
v -464 -576 0
v -464 -560 0
v -448 -560 0
v -816 -592 0
v -832 -592 0
v -832 -576 0
v -816 -576 0
v -624 -592 0
v -640 -592 0
v -640 -576 0
v -624 -576 0
v -816 -608 0
v -832 -608 0
v -832 -592 0
v -816 -592 0
v -704 -608 0
v -720 -608 0
v -720 -592 0
v -704 -592 0
v -624 -608 0
v -640 -608 0
v -640 -592 0
v -624 -592 0
v -704 -624 0
v -720 -624 0
v -720 -608 0
v -704 -608 0
v -1040 -640 0
v -1056 -640 0
v -1056 -624 0
v -1040 -624 0
v -928 -640 0
v -944 -640 0
v -944 -624 0
v -928 -624 0
v -1040 -656 0
v -1056 -656 0
v -1056 -640 0
v -1040 -640 0
v -928 -656 0
v -944 -656 0
v -944 -640 0
v -928 -640 0
v -704 -656 0
v -720 -656 0
v -720 -640 0
v -704 -640 0
v -736 -672 0
v -752 -672 0
v -752 -656 0
v -736 -656 0
v -880 -688 0
v -896 -688 0
v -896 -672 0
v -880 -672 0
v -832 -688 0
v -848 -688 0
v -848 -672 0
v -832 -672 0
v -736 -688 0
v -752 -688 0
v -752 -672 0
v -736 -672 0
v -512 -688 0
v -528 -688 0
v -528 -672 0
v -512 -672 0
v -1024 -704 0
v -1040 -704 0
v -1040 -688 0
v -1024 -688 0
v -832 -704 0
v -848 -704 0
v -848 -688 0
v -832 -688 0
v -448 -704 0
v -464 -704 0
v -464 -688 0
v -448 -688 0
v -1024 -720 0
v -1040 -720 0
v -1040 -704 0
v -1024 -704 0
v -944 -720 0
v -960 -720 0
v -960 -704 0
v -944 -704 0
v -720 -720 0
v -736 -720 0
v -736 -704 0
v -720 -704 0
v -832 -736 0
v -848 -736 0
v -848 -720 0
v -832 -720 0
v -720 -736 0
v -736 -736 0
v -736 -720 0
v -720 -720 0
v -1088 -752 0
v -1104 -752 0
v -1104 -736 0
v -1088 -736 0
v -880 -752 0
v -896 -752 0
v -896 -736 0
v -880 -736 0
v -832 -752 0
v -848 -752 0
v -848 -736 0
v -832 -736 0
v -992 -768 0
v -1008 -768 0
v -1008 -752 0
v -992 -752 0
v -976 -768 0
v -992 -768 0
v -992 -752 0
v -976 -752 0
v -752 -768 0
v -768 -768 0
v -768 -752 0
v -752 -752 0
v -736 -768 0
v -752 -768 0
v -752 -752 0
v -736 -752 0
v -528 -768 0
v -544 -768 0
v -544 -752 0
v -528 -752 0
v -992 -784 0
v -1008 -784 0
v -1008 -768 0
v -992 -768 0
v -976 -784 0
v -992 -784 0
v -992 -768 0
v -976 -768 0
v -752 -784 0
v -768 -784 0
v -768 -768 0
v -752 -768 0
v -736 -784 0
v -752 -784 0
v -752 -768 0
v -736 -768 0
v -656 -784 0
v -672 -784 0
v -672 -768 0
v -656 -768 0
v -528 -784 0
v -544 -784 0
v -544 -768 0
v -528 -768 0
v -976 -800 0
v -992 -800 0
v -992 -784 0
v -976 -784 0
v -592 -800 0
v -608 -800 0
v -608 -784 0
v -592 -784 0
v -896 -816 0
v -912 -816 0
v -912 -800 0
v -896 -800 0
v -880 -816 0
v -896 -816 0
v -896 -800 0
v -880 -800 0
v -640 -816 0
v -656 -816 0
v -656 -800 0
v -640 -800 0
v -592 -816 0
v -608 -816 0
v -608 -800 0
v -592 -800 0
v -576 -816 0
v -592 -816 0
v -592 -800 0
v -576 -800 0
v -1104 -832 0
v -1120 -832 0
v -1120 -816 0
v -1104 -816 0
v -896 -832 0
v -912 -832 0
v -912 -816 0
v -896 -816 0
v -880 -832 0
v -896 -832 0
v -896 -816 0
v -880 -816 0
v -832 -832 0
v -848 -832 0
v -848 -816 0
v -832 -816 0
v -752 -832 0
v -768 -832 0
v -768 -816 0
v -752 -816 0
v -640 -832 0
v -656 -832 0
v -656 -816 0
v -640 -816 0
v -624 -832 0
v -640 -832 0
v -640 -816 0
v -624 -816 0
v -528 -832 0
v -544 -832 0
v -544 -816 0
v -528 -816 0
v -832 -848 0
v -848 -848 0
v -848 -832 0
v -832 -832 0
v -752 -848 0
v -768 -848 0
v -768 -832 0
v -752 -832 0
v -624 -848 0
v -640 -848 0
v -640 -832 0
v -624 -832 0
v -528 -848 0
v -544 -848 0
v -544 -832 0
v -528 -832 0
v -864 -880 0
v -880 -880 0
v -880 -864 0
v -864 -864 0
v -1104 -896 0
v -1120 -896 0
v -1120 -880 0
v -1104 -880 0
v -864 -896 0
v -880 -896 0
v -880 -880 0
v -864 -880 0
v -656 -896 0
v -672 -896 0
v -672 -880 0
v -656 -880 0
v -960 -912 0
v -976 -912 0
v -976 -896 0
v -960 -896 0
v -720 -912 0
v -736 -912 0
v -736 -896 0
v -720 -896 0
v -864 -928 0
v -880 -928 0
v -880 -912 0
v -864 -912 0
v -720 -928 0
v -736 -928 0
v -736 -912 0
v -720 -912 0
v -592 -928 0
v -608 -928 0
v -608 -912 0
v -592 -912 0
v -864 -944 0
v -880 -944 0
v -880 -928 0
v -864 -928 0
v -592 -944 0
v -608 -944 0
v -608 -928 0
v -592 -928 0
v -864 -960 0
v -880 -960 0
v -880 -944 0
v -864 -944 0
v -1040 -1120 0
v -1056 -1120 0
v -1056 -1104 0
v -1040 -1104 0

# Texture cooridinates (Count = 12)
vt 0.2809917 0.6463878
vt 0.2975207 0.6463878
vt 0.2975207 0.6768061
vt 0.2809917 0.6768061
vt 0.2809917 0.6140684
vt 0.2975207 0.6140684
vt 0.2975207 0.6444867
vt 0.2809917 0.6444867
vt 0.2283058 0.6787072
vt 0.2448347 0.6787072
vt 0.2448347 0.7091255
vt 0.2283058 0.7091255

# Normal
vn 0 0 -1

# Mesh description
g Test-Area_mesh_0003

# Faces
f 1/1/1 2/2/1 3/3/1 4/4/1
f 5/5/1 6/6/1 7/7/1 8/8/1
f 9/1/1 10/2/1 11/3/1 12/4/1
f 13/9/1 14/10/1 15/11/1 16/12/1
f 17/9/1 18/10/1 19/11/1 20/12/1
f 21/5/1 22/6/1 23/7/1 24/8/1
f 25/1/1 26/2/1 27/3/1 28/4/1
f 29/5/1 30/6/1 31/7/1 32/8/1
f 33/1/1 34/2/1 35/3/1 36/4/1
f 37/1/1 38/2/1 39/3/1 40/4/1
f 41/1/1 42/2/1 43/3/1 44/4/1
f 45/5/1 46/6/1 47/7/1 48/8/1
f 49/5/1 50/6/1 51/7/1 52/8/1
f 53/5/1 54/6/1 55/7/1 56/8/1
f 57/9/1 58/10/1 59/11/1 60/12/1
f 61/9/1 62/10/1 63/11/1 64/12/1
f 65/9/1 66/10/1 67/11/1 68/12/1
f 69/1/1 70/2/1 71/3/1 72/4/1
f 73/1/1 74/2/1 75/3/1 76/4/1
f 77/5/1 78/6/1 79/7/1 80/8/1
f 81/1/1 82/2/1 83/3/1 84/4/1
f 85/5/1 86/6/1 87/7/1 88/8/1
f 89/5/1 90/6/1 91/7/1 92/8/1
f 93/1/1 94/2/1 95/3/1 96/4/1
f 97/1/1 98/2/1 99/3/1 100/4/1
f 101/5/1 102/6/1 103/7/1 104/8/1
f 105/5/1 106/6/1 107/7/1 108/8/1
f 109/9/1 110/10/1 111/11/1 112/12/1
f 113/1/1 114/2/1 115/3/1 116/4/1
f 117/9/1 118/10/1 119/11/1 120/12/1
f 121/1/1 122/2/1 123/3/1 124/4/1
f 125/5/1 126/6/1 127/7/1 128/8/1
f 129/9/1 130/10/1 131/11/1 132/12/1
f 133/1/1 134/2/1 135/3/1 136/4/1
f 137/5/1 138/6/1 139/7/1 140/8/1
f 141/9/1 142/10/1 143/11/1 144/12/1
f 145/5/1 146/6/1 147/7/1 148/8/1
f 149/9/1 150/10/1 151/11/1 152/12/1
f 153/1/1 154/2/1 155/3/1 156/4/1
f 157/1/1 158/2/1 159/3/1 160/4/1
f 161/5/1 162/6/1 163/7/1 164/8/1
f 165/9/1 166/10/1 167/11/1 168/12/1
f 169/9/1 170/10/1 171/11/1 172/12/1
f 173/5/1 174/6/1 175/7/1 176/8/1
f 177/1/1 178/2/1 179/3/1 180/4/1
f 181/1/1 182/2/1 183/3/1 184/4/1
f 185/1/1 186/2/1 187/3/1 188/4/1
f 189/1/1 190/2/1 191/3/1 192/4/1
f 193/1/1 194/2/1 195/3/1 196/4/1
f 197/5/1 198/6/1 199/7/1 200/8/1
f 201/5/1 202/6/1 203/7/1 204/8/1
f 205/5/1 206/6/1 207/7/1 208/8/1
f 209/5/1 210/6/1 211/7/1 212/8/1
f 213/9/1 214/10/1 215/11/1 216/12/1
f 217/5/1 218/6/1 219/7/1 220/8/1
f 221/5/1 222/6/1 223/7/1 224/8/1
f 225/9/1 226/10/1 227/11/1 228/12/1
f 229/1/1 230/2/1 231/3/1 232/4/1
f 233/1/1 234/2/1 235/3/1 236/4/1
f 237/1/1 238/2/1 239/3/1 240/4/1
f 241/9/1 242/10/1 243/11/1 244/12/1
f 245/9/1 246/10/1 247/11/1 248/12/1
f 249/9/1 250/10/1 251/11/1 252/12/1
f 253/5/1 254/6/1 255/7/1 256/8/1
f 257/5/1 258/6/1 259/7/1 260/8/1
f 261/1/1 262/2/1 263/3/1 264/4/1
f 265/1/1 266/2/1 267/3/1 268/4/1
f 269/5/1 270/6/1 271/7/1 272/8/1
f 273/1/1 274/2/1 275/3/1 276/4/1
f 277/1/1 278/2/1 279/3/1 280/4/1
f 281/5/1 282/6/1 283/7/1 284/8/1
f 285/5/1 286/6/1 287/7/1 288/8/1
f 289/5/1 290/6/1 291/7/1 292/8/1
f 293/5/1 294/6/1 295/7/1 296/8/1
f 297/1/1 298/2/1 299/3/1 300/4/1
f 301/9/1 302/10/1 303/11/1 304/12/1
f 305/5/1 306/6/1 307/7/1 308/8/1
f 309/9/1 310/10/1 311/11/1 312/12/1
f 313/9/1 314/10/1 315/11/1 316/12/1
f 317/1/1 318/2/1 319/3/1 320/4/1
f 321/1/1 322/2/1 323/3/1 324/4/1
f 325/5/1 326/6/1 327/7/1 328/8/1
f 329/1/1 330/2/1 331/3/1 332/4/1
f 333/5/1 334/6/1 335/7/1 336/8/1
f 337/5/1 338/6/1 339/7/1 340/8/1
f 341/5/1 342/6/1 343/7/1 344/8/1
f 345/9/1 346/10/1 347/11/1 348/12/1

