# Tiled2Unity generated file. Do not modify by hand.
# Wavefront file for 'Test-Area_mesh_0002.obj'

# Vertices (Count = 452)
v -704 -528 0
v -720 -528 0
v -720 -512 0
v -704 -512 0
v -688 -528 0
v -704 -528 0
v -704 -512 0
v -688 -512 0
v -672 -528 0
v -688 -528 0
v -688 -512 0
v -672 -512 0
v -784 -544 0
v -800 -544 0
v -800 -528 0
v -784 -528 0
v -768 -544 0
v -784 -544 0
v -784 -528 0
v -768 -528 0
v -752 -544 0
v -768 -544 0
v -768 -528 0
v -752 -528 0
v -736 -544 0
v -752 -544 0
v -752 -528 0
v -736 -528 0
v -720 -544 0
v -736 -544 0
v -736 -528 0
v -720 -528 0
v -704 -544 0
v -720 -544 0
v -720 -528 0
v -704 -528 0
v -688 -544 0
v -704 -544 0
v -704 -528 0
v -688 -528 0
v -672 -544 0
v -688 -544 0
v -688 -528 0
v -672 -528 0
v -784 -560 0
v -800 -560 0
v -800 -544 0
v -784 -544 0
v -768 -560 0
v -784 -560 0
v -784 -544 0
v -768 -544 0
v -752 -560 0
v -768 -560 0
v -768 -544 0
v -752 -544 0
v -736 -560 0
v -752 -560 0
v -752 -544 0
v -736 -544 0
v -720 -560 0
v -736 -560 0
v -736 -544 0
v -720 -544 0
v -704 -560 0
v -720 -560 0
v -720 -544 0
v -704 -544 0
v -688 -560 0
v -704 -560 0
v -704 -544 0
v -688 -544 0
v -672 -560 0
v -688 -560 0
v -688 -544 0
v -672 -544 0
v -656 -560 0
v -672 -560 0
v -672 -544 0
v -656 -544 0
v -800 -576 0
v -816 -576 0
v -816 -560 0
v -800 -560 0
v -784 -576 0
v -800 -576 0
v -800 -560 0
v -784 -560 0
v -768 -576 0
v -784 -576 0
v -784 -560 0
v -768 -560 0
v -752 -576 0
v -768 -576 0
v -768 -560 0
v -752 -560 0
v -736 -576 0
v -752 -576 0
v -752 -560 0
v -736 -560 0
v -720 -576 0
v -736 -576 0
v -736 -560 0
v -720 -560 0
v -704 -576 0
v -720 -576 0
v -720 -560 0
v -704 -560 0
v -688 -576 0
v -704 -576 0
v -704 -560 0
v -688 -560 0
v -672 -576 0
v -688 -576 0
v -688 -560 0
v -672 -560 0
v -656 -576 0
v -672 -576 0
v -672 -560 0
v -656 -560 0
v -800 -592 0
v -816 -592 0
v -816 -576 0
v -800 -576 0
v -784 -592 0
v -800 -592 0
v -800 -576 0
v -784 -576 0
v -768 -592 0
v -784 -592 0
v -784 -576 0
v -768 -576 0
v -752 -592 0
v -768 -592 0
v -768 -576 0
v -752 -576 0
v -736 -592 0
v -752 -592 0
v -752 -576 0
v -736 -576 0
v -720 -592 0
v -736 -592 0
v -736 -576 0
v -720 -576 0
v -704 -592 0
v -720 -592 0
v -720 -576 0
v -704 -576 0
v -688 -592 0
v -704 -592 0
v -704 -576 0
v -688 -576 0
v -672 -592 0
v -688 -592 0
v -688 -576 0
v -672 -576 0
v -656 -592 0
v -672 -592 0
v -672 -576 0
v -656 -576 0
v -800 -608 0
v -816 -608 0
v -816 -592 0
v -800 -592 0
v -784 -608 0
v -800 -608 0
v -800 -592 0
v -784 -592 0
v -768 -608 0
v -784 -608 0
v -784 -592 0
v -768 -592 0
v -752 -608 0
v -768 -608 0
v -768 -592 0
v -752 -592 0
v -736 -608 0
v -752 -608 0
v -752 -592 0
v -736 -592 0
v -720 -608 0
v -736 -608 0
v -736 -592 0
v -720 -592 0
v -704 -608 0
v -720 -608 0
v -720 -592 0
v -704 -592 0
v -688 -608 0
v -704 -608 0
v -704 -592 0
v -688 -592 0
v -672 -608 0
v -688 -608 0
v -688 -592 0
v -672 -592 0
v -656 -608 0
v -672 -608 0
v -672 -592 0
v -656 -592 0
v -816 -624 0
v -832 -624 0
v -832 -608 0
v -816 -608 0
v -800 -624 0
v -816 -624 0
v -816 -608 0
v -800 -608 0
v -784 -624 0
v -800 -624 0
v -800 -608 0
v -784 -608 0
v -768 -624 0
v -784 -624 0
v -784 -608 0
v -768 -608 0
v -752 -624 0
v -768 -624 0
v -768 -608 0
v -752 -608 0
v -736 -624 0
v -752 -624 0
v -752 -608 0
v -736 -608 0
v -720 -624 0
v -736 -624 0
v -736 -608 0
v -720 -608 0
v -704 -624 0
v -720 -624 0
v -720 -608 0
v -704 -608 0
v -688 -624 0
v -704 -624 0
v -704 -608 0
v -688 -608 0
v -672 -624 0
v -688 -624 0
v -688 -608 0
v -672 -608 0
v -656 -624 0
v -672 -624 0
v -672 -608 0
v -656 -608 0
v -816 -640 0
v -832 -640 0
v -832 -624 0
v -816 -624 0
v -800 -640 0
v -816 -640 0
v -816 -624 0
v -800 -624 0
v -784 -640 0
v -800 -640 0
v -800 -624 0
v -784 -624 0
v -768 -640 0
v -784 -640 0
v -784 -624 0
v -768 -624 0
v -752 -640 0
v -768 -640 0
v -768 -624 0
v -752 -624 0
v -736 -640 0
v -752 -640 0
v -752 -624 0
v -736 -624 0
v -720 -640 0
v -736 -640 0
v -736 -624 0
v -720 -624 0
v -704 -640 0
v -720 -640 0
v -720 -624 0
v -704 -624 0
v -688 -640 0
v -704 -640 0
v -704 -624 0
v -688 -624 0
v -672 -640 0
v -688 -640 0
v -688 -624 0
v -672 -624 0
v -656 -640 0
v -672 -640 0
v -672 -624 0
v -656 -624 0
v -816 -656 0
v -832 -656 0
v -832 -640 0
v -816 -640 0
v -800 -656 0
v -816 -656 0
v -816 -640 0
v -800 -640 0
v -784 -656 0
v -800 -656 0
v -800 -640 0
v -784 -640 0
v -768 -656 0
v -784 -656 0
v -784 -640 0
v -768 -640 0
v -752 -656 0
v -768 -656 0
v -768 -640 0
v -752 -640 0
v -736 -656 0
v -752 -656 0
v -752 -640 0
v -736 -640 0
v -720 -656 0
v -736 -656 0
v -736 -640 0
v -720 -640 0
v -704 -656 0
v -720 -656 0
v -720 -640 0
v -704 -640 0
v -688 -656 0
v -704 -656 0
v -704 -640 0
v -688 -640 0
v -672 -656 0
v -688 -656 0
v -688 -640 0
v -672 -640 0
v -816 -672 0
v -832 -672 0
v -832 -656 0
v -816 -656 0
v -800 -672 0
v -816 -672 0
v -816 -656 0
v -800 -656 0
v -784 -672 0
v -800 -672 0
v -800 -656 0
v -784 -656 0
v -768 -672 0
v -784 -672 0
v -784 -656 0
v -768 -656 0
v -752 -672 0
v -768 -672 0
v -768 -656 0
v -752 -656 0
v -736 -672 0
v -752 -672 0
v -752 -656 0
v -736 -656 0
v -720 -672 0
v -736 -672 0
v -736 -656 0
v -720 -656 0
v -704 -672 0
v -720 -672 0
v -720 -656 0
v -704 -656 0
v -688 -672 0
v -704 -672 0
v -704 -656 0
v -688 -656 0
v -672 -672 0
v -688 -672 0
v -688 -656 0
v -672 -656 0
v -816 -688 0
v -832 -688 0
v -832 -672 0
v -816 -672 0
v -800 -688 0
v -816 -688 0
v -816 -672 0
v -800 -672 0
v -784 -688 0
v -800 -688 0
v -800 -672 0
v -784 -672 0
v -768 -688 0
v -784 -688 0
v -784 -672 0
v -768 -672 0
v -752 -688 0
v -768 -688 0
v -768 -672 0
v -752 -672 0
v -736 -688 0
v -752 -688 0
v -752 -672 0
v -736 -672 0
v -720 -688 0
v -736 -688 0
v -736 -672 0
v -720 -672 0
v -704 -688 0
v -720 -688 0
v -720 -672 0
v -704 -672 0
v -688 -688 0
v -704 -688 0
v -704 -672 0
v -688 -672 0
v -816 -704 0
v -832 -704 0
v -832 -688 0
v -816 -688 0
v -800 -704 0
v -816 -704 0
v -816 -688 0
v -800 -688 0
v -784 -704 0
v -800 -704 0
v -800 -688 0
v -784 -688 0
v -768 -704 0
v -784 -704 0
v -784 -688 0
v -768 -688 0
v -752 -704 0
v -768 -704 0
v -768 -688 0
v -752 -688 0
v -736 -704 0
v -752 -704 0
v -752 -688 0
v -736 -688 0
v -720 -704 0
v -736 -704 0
v -736 -688 0
v -720 -688 0
v -800 -720 0
v -816 -720 0
v -816 -704 0
v -800 -704 0
v -784 -720 0
v -800 -720 0
v -800 -704 0
v -784 -704 0
v -768 -720 0
v -784 -720 0
v -784 -704 0
v -768 -704 0
v -752 -720 0
v -768 -720 0
v -768 -704 0
v -752 -704 0
v -736 -720 0
v -752 -720 0
v -752 -704 0
v -736 -704 0

# Texture cooridinates (Count = 52)
vt 0.1580579 0.6787072
vt 0.1745868 0.6787072
vt 0.1745868 0.7091255
vt 0.1580579 0.7091255
vt 0.1404959 0.6787072
vt 0.1570248 0.6787072
vt 0.1570248 0.7091255
vt 0.1404959 0.7091255
vt 0.1229339 0.6787072
vt 0.1394628 0.6787072
vt 0.1394628 0.7091255
vt 0.1229339 0.7091255
vt 0.08780992 0.6463878
vt 0.1043388 0.6463878
vt 0.1043388 0.6768061
vt 0.08780992 0.6768061
vt 0.1404959 0.6463878
vt 0.1570248 0.6463878
vt 0.1570248 0.6768061
vt 0.1404959 0.6768061
vt 0.1229339 0.6463878
vt 0.1394628 0.6463878
vt 0.1394628 0.6768061
vt 0.1229339 0.6768061
vt 0.1580579 0.6463878
vt 0.1745868 0.6463878
vt 0.1745868 0.6768061
vt 0.1580579 0.6768061
vt 0.1053719 0.6463878
vt 0.1219008 0.6463878
vt 0.1219008 0.6768061
vt 0.1053719 0.6768061
vt 0.1053719 0.6787072
vt 0.1219008 0.6787072
vt 0.1219008 0.7091255
vt 0.1053719 0.7091255
vt 0.1229339 0.6140684
vt 0.1394628 0.6140684
vt 0.1394628 0.6444867
vt 0.1229339 0.6444867
vt 0.1404959 0.6140684
vt 0.1570248 0.6140684
vt 0.1570248 0.6444867
vt 0.1404959 0.6444867
vt 0.1580579 0.6140684
vt 0.1745868 0.6140684
vt 0.1745868 0.6444867
vt 0.1580579 0.6444867
vt 0.08780992 0.6787072
vt 0.1043388 0.6787072
vt 0.1043388 0.7091255
vt 0.08780992 0.7091255

# Normal
vn 0 0 -1

# Mesh description
g Test-Area_mesh_0002

# Faces
f 1/1/1 2/2/1 3/3/1 4/4/1
f 5/5/1 6/6/1 7/7/1 8/8/1
f 9/9/1 10/10/1 11/11/1 12/12/1
f 13/1/1 14/2/1 15/3/1 16/4/1
f 17/5/1 18/6/1 19/7/1 20/8/1
f 21/5/1 22/6/1 23/7/1 24/8/1
f 25/5/1 26/6/1 27/7/1 28/8/1
f 29/5/1 30/6/1 31/7/1 32/8/1
f 33/13/1 34/14/1 35/15/1 36/16/1
f 37/17/1 38/18/1 39/19/1 40/20/1
f 41/21/1 42/22/1 43/23/1 44/24/1
f 45/25/1 46/26/1 47/27/1 48/28/1
f 49/17/1 50/18/1 51/19/1 52/20/1
f 53/17/1 54/18/1 55/19/1 56/20/1
f 57/17/1 58/18/1 59/19/1 60/20/1
f 61/17/1 62/18/1 63/19/1 64/20/1
f 65/17/1 66/18/1 67/19/1 68/20/1
f 69/17/1 70/18/1 71/19/1 72/20/1
f 73/29/1 74/30/1 75/31/1 76/32/1
f 77/9/1 78/10/1 79/11/1 80/12/1
f 81/1/1 82/2/1 83/3/1 84/4/1
f 85/13/1 86/14/1 87/15/1 88/16/1
f 89/17/1 90/18/1 91/19/1 92/20/1
f 93/17/1 94/18/1 95/19/1 96/20/1
f 97/17/1 98/18/1 99/19/1 100/20/1
f 101/17/1 102/18/1 103/19/1 104/20/1
f 105/17/1 106/18/1 107/19/1 108/20/1
f 109/17/1 110/18/1 111/19/1 112/20/1
f 113/17/1 114/18/1 115/19/1 116/20/1
f 117/21/1 118/22/1 119/23/1 120/24/1
f 121/25/1 122/26/1 123/27/1 124/28/1
f 125/17/1 126/18/1 127/19/1 128/20/1
f 129/17/1 130/18/1 131/19/1 132/20/1
f 133/17/1 134/18/1 135/19/1 136/20/1
f 137/17/1 138/18/1 139/19/1 140/20/1
f 141/17/1 142/18/1 143/19/1 144/20/1
f 145/17/1 146/18/1 147/19/1 148/20/1
f 149/17/1 150/18/1 151/19/1 152/20/1
f 153/17/1 154/18/1 155/19/1 156/20/1
f 157/21/1 158/22/1 159/23/1 160/24/1
f 161/25/1 162/26/1 163/27/1 164/28/1
f 165/17/1 166/18/1 167/19/1 168/20/1
f 169/17/1 170/18/1 171/19/1 172/20/1
f 173/17/1 174/18/1 175/19/1 176/20/1
f 177/17/1 178/18/1 179/19/1 180/20/1
f 181/17/1 182/18/1 183/19/1 184/20/1
f 185/17/1 186/18/1 187/19/1 188/20/1
f 189/17/1 190/18/1 191/19/1 192/20/1
f 193/17/1 194/18/1 195/19/1 196/20/1
f 197/21/1 198/22/1 199/23/1 200/24/1
f 201/1/1 202/2/1 203/3/1 204/4/1
f 205/13/1 206/14/1 207/15/1 208/16/1
f 209/17/1 210/18/1 211/19/1 212/20/1
f 213/17/1 214/18/1 215/19/1 216/20/1
f 217/17/1 218/18/1 219/19/1 220/20/1
f 221/17/1 222/18/1 223/19/1 224/20/1
f 225/17/1 226/18/1 227/19/1 228/20/1
f 229/17/1 230/18/1 231/19/1 232/20/1
f 233/17/1 234/18/1 235/19/1 236/20/1
f 237/17/1 238/18/1 239/19/1 240/20/1
f 241/21/1 242/22/1 243/23/1 244/24/1
f 245/25/1 246/26/1 247/27/1 248/28/1
f 249/17/1 250/18/1 251/19/1 252/20/1
f 253/17/1 254/18/1 255/19/1 256/20/1
f 257/17/1 258/18/1 259/19/1 260/20/1
f 261/17/1 262/18/1 263/19/1 264/20/1
f 265/17/1 266/18/1 267/19/1 268/20/1
f 269/17/1 270/18/1 271/19/1 272/20/1
f 273/17/1 274/18/1 275/19/1 276/20/1
f 277/17/1 278/18/1 279/19/1 280/20/1
f 281/33/1 282/34/1 283/35/1 284/36/1
f 285/37/1 286/38/1 287/39/1 288/40/1
f 289/25/1 290/26/1 291/27/1 292/28/1
f 293/17/1 294/18/1 295/19/1 296/20/1
f 297/17/1 298/18/1 299/19/1 300/20/1
f 301/17/1 302/18/1 303/19/1 304/20/1
f 305/17/1 306/18/1 307/19/1 308/20/1
f 309/17/1 310/18/1 311/19/1 312/20/1
f 313/17/1 314/18/1 315/19/1 316/20/1
f 317/17/1 318/18/1 319/19/1 320/20/1
f 321/17/1 322/18/1 323/19/1 324/20/1
f 325/21/1 326/22/1 327/23/1 328/24/1
f 329/25/1 330/26/1 331/27/1 332/28/1
f 333/17/1 334/18/1 335/19/1 336/20/1
f 337/17/1 338/18/1 339/19/1 340/20/1
f 341/17/1 342/18/1 343/19/1 344/20/1
f 345/17/1 346/18/1 347/19/1 348/20/1
f 349/17/1 350/18/1 351/19/1 352/20/1
f 353/17/1 354/18/1 355/19/1 356/20/1
f 357/17/1 358/18/1 359/19/1 360/20/1
f 361/33/1 362/34/1 363/35/1 364/36/1
f 365/37/1 366/38/1 367/39/1 368/40/1
f 369/25/1 370/26/1 371/27/1 372/28/1
f 373/17/1 374/18/1 375/19/1 376/20/1
f 377/17/1 378/18/1 379/19/1 380/20/1
f 381/17/1 382/18/1 383/19/1 384/20/1
f 385/17/1 386/18/1 387/19/1 388/20/1
f 389/17/1 390/18/1 391/19/1 392/20/1
f 393/33/1 394/34/1 395/35/1 396/36/1
f 397/41/1 398/42/1 399/43/1 400/44/1
f 401/37/1 402/38/1 403/39/1 404/40/1
f 405/45/1 406/46/1 407/47/1 408/48/1
f 409/49/1 410/50/1 411/51/1 412/52/1
f 413/17/1 414/18/1 415/19/1 416/20/1
f 417/17/1 418/18/1 419/19/1 420/20/1
f 421/17/1 422/18/1 423/19/1 424/20/1
f 425/33/1 426/34/1 427/35/1 428/36/1
f 429/37/1 430/38/1 431/39/1 432/40/1
f 433/45/1 434/46/1 435/47/1 436/48/1
f 437/41/1 438/42/1 439/43/1 440/44/1
f 441/41/1 442/42/1 443/43/1 444/44/1
f 445/41/1 446/42/1 447/43/1 448/44/1
f 449/37/1 450/38/1 451/39/1 452/40/1

