# Tiled2Unity generated file. Do not modify by hand.
# Wavefront file for 'Test-Area_mesh_0006.obj'

# Vertices (Count = 52)
v -784 -624 0
v -800 -624 0
v -800 -608 0
v -784 -608 0
v -768 -624 0
v -784 -624 0
v -784 -608 0
v -768 -608 0
v -752 -624 0
v -768 -624 0
v -768 -608 0
v -752 -608 0
v -784 -640 0
v -800 -640 0
v -800 -624 0
v -784 -624 0
v -768 -640 0
v -784 -640 0
v -784 -624 0
v -768 -624 0
v -752 -640 0
v -768 -640 0
v -768 -624 0
v -752 -624 0
v -784 -656 0
v -800 -656 0
v -800 -640 0
v -784 -640 0
v -768 -656 0
v -784 -656 0
v -784 -640 0
v -768 -640 0
v -752 -656 0
v -768 -656 0
v -768 -640 0
v -752 -640 0
v -784 -672 0
v -800 -672 0
v -800 -656 0
v -784 -656 0
v -752 -672 0
v -768 -672 0
v -768 -656 0
v -752 -656 0
v -768 -704 0
v -784 -704 0
v -784 -688 0
v -768 -688 0
v -768 -720 0
v -784 -720 0
v -784 -704 0
v -768 -704 0

# Texture cooridinates (Count = 44)
vt 0.5268595 0.2908745
vt 0.5433884 0.2908745
vt 0.5433884 0.3212928
vt 0.5268595 0.3212928
vt 0.4741735 0.1939163
vt 0.4907025 0.1939163
vt 0.4907025 0.2243346
vt 0.4741735 0.2243346
vt 0.5092975 0.2908745
vt 0.5258265 0.2908745
vt 0.5258265 0.3212928
vt 0.5092975 0.3212928
vt 0.4917355 0.2585551
vt 0.5082645 0.2585551
vt 0.5082645 0.2889734
vt 0.4917355 0.2889734
vt 0.4917355 0.1939163
vt 0.5082645 0.1939163
vt 0.5082645 0.2243346
vt 0.4917355 0.2243346
vt 0.4741735 0.2585551
vt 0.4907025 0.2585551
vt 0.4907025 0.2889734
vt 0.4741735 0.2889734
vt 0.5092975 0.1939163
vt 0.5258265 0.1939163
vt 0.5258265 0.2243346
vt 0.5092975 0.2243346
vt 0.4917355 0.2262357
vt 0.5082645 0.2262357
vt 0.5082645 0.256654
vt 0.4917355 0.256654
vt 0.4741735 0.2262357
vt 0.4907025 0.2262357
vt 0.4907025 0.256654
vt 0.4741735 0.256654
vt 0.6322314 0.9372624
vt 0.6487603 0.9372624
vt 0.6487603 0.9676806
vt 0.6322314 0.9676806
vt 0.1404959 0.4524715
vt 0.1570248 0.4524715
vt 0.1570248 0.4828897
vt 0.1404959 0.4828897

# Normal
vn 0 0 -1

# Mesh description
g Test-Area_mesh_0006

# Faces
f 1/1/1 2/2/1 3/3/1 4/4/1
f 5/5/1 6/6/1 7/7/1 8/8/1
f 9/9/1 10/10/1 11/11/1 12/12/1
f 13/13/1 14/14/1 15/15/1 16/16/1
f 17/17/1 18/18/1 19/19/1 20/20/1
f 21/21/1 22/22/1 23/23/1 24/24/1
f 25/13/1 26/14/1 27/15/1 28/16/1
f 29/25/1 30/26/1 31/27/1 32/28/1
f 33/21/1 34/22/1 35/23/1 36/24/1
f 37/29/1 38/30/1 39/31/1 40/32/1
f 41/33/1 42/34/1 43/35/1 44/36/1
f 45/37/1 46/38/1 47/39/1 48/40/1
f 49/41/1 50/42/1 51/43/1 52/44/1

